<svg width="16" height="16" viewBox="0 0 16 16" fill="none" xmlns="http://www.w3.org/2000/svg">
<path d="M0 14.4V8.04225V1.60001H10.661C11.7675 1.60001 12.7145 1.79505 13.5017 2.18515C14.3002 2.56305 14.9162 3.11163 15.3498 3.83086C15.7833 4.5501 16 5.40344 16 6.39087C16 7.3783 15.7833 8.23169 15.3498 8.95089C14.9162 9.65793 14.2945 10.2065 13.4845 10.5966C12.6745 10.9745 11.7106 11.1634 10.5926 11.1634H3.78182V14.4H0ZM9.9936 4.67201H3.78182L0 8.04225L9.9936 8.09145C11.4196 8.09145 12.1326 7.53069 12.1326 6.40916C12.1326 5.25106 11.4196 4.67201 9.9936 4.67201Z" fill="white"/>
</svg>
